<svg width="40" height="40" viewBox="0 0 40 40" fill="none" xmlns="http://www.w3.org/2000/svg">
<path d="M19.9974 19.1663C20.8232 19.1663 21.5911 18.8355 23.1266 18.1738L24.2346 17.6963C26.9654 16.5197 28.3307 15.9314 28.3307 14.9997C28.3307 14.068 26.9654 13.4796 24.2346 12.303L23.1266 11.8255C21.5911 11.1638 20.8232 10.833 19.9974 10.833C19.1716 10.833 18.4037 11.1638 16.8682 11.8255L15.7602 12.303C13.0294 13.4796 11.6641 14.068 11.6641 14.9997C11.6641 15.9314 13.0294 16.5197 15.7602 17.6963L16.8682 18.1738C18.4037 18.8355 19.1716 19.1663 19.9974 19.1663ZM19.9974 19.1663V29.1663" stroke="black" stroke-width="2.5" stroke-linejoin="round"/>
<path d="M28.3307 15V25C28.3307 25.9317 26.9654 26.52 24.2346 27.6967L23.1266 28.1742C21.5911 28.8358 20.8232 29.1667 19.9974 29.1667C19.1716 29.1667 18.4037 28.8358 16.8682 28.1742L15.7602 27.6967C13.0294 26.52 11.6641 25.9317 11.6641 25V15" stroke="black" stroke-width="2.5" stroke-linejoin="round"/>
<path d="M15.2378 4.16699C10.8095 4.26824 8.22288 4.69126 6.45561 6.45854C4.68833 8.22581 4.26531 10.8124 4.16406 15.2408M24.7569 4.16699C29.1854 4.26824 31.7719 4.69126 33.5392 6.45854C35.3064 8.22581 35.7294 10.8124 35.8307 15.2408M24.7569 35.8337C29.1854 35.7323 31.7719 35.3093 33.5392 33.5422C35.3064 31.7748 35.7294 29.1883 35.8307 24.7598M15.2378 35.8337C10.8095 35.7323 8.22288 35.3093 6.45561 33.5422C4.68833 31.7748 4.26531 29.1883 4.16406 24.7598" stroke="black" stroke-width="2.5" stroke-linecap="round" stroke-linejoin="round"/>
</svg>
