<svg width="40" height="40" viewBox="0 0 40 40" fill="none" xmlns="http://www.w3.org/2000/svg">
<path d="M11.6693 7.49967C8.90785 7.49967 6.66927 9.73826 6.66927 12.4997C6.66927 13.4474 6.93297 14.3336 7.391 15.0888C5.08139 15.5306 3.33594 17.5613 3.33594 19.9997C3.33594 22.438 5.08139 24.4687 7.391 24.9105M11.6693 7.49967C11.6693 5.19849 13.5348 3.33301 15.8359 3.33301C18.1371 3.33301 20.0026 5.19849 20.0026 7.49967V32.4997C20.0026 34.8008 18.1371 36.6663 15.8359 36.6663C13.5348 36.6663 11.6693 34.8008 11.6693 32.4997C8.90785 32.4997 6.66927 30.2612 6.66927 27.4997C6.66927 26.5518 6.93297 25.6657 7.391 24.9105M11.6693 7.49967C11.6693 8.86286 12.3239 10.0731 13.3359 10.8333M7.391 24.9105C7.98507 23.931 8.90605 23.1717 10.0026 22.7842" stroke="black" stroke-width="2.5" stroke-linecap="round" stroke-linejoin="round"/>
<path d="M28.3333 32.4997C31.0948 32.4997 33.3333 30.2612 33.3333 27.4997C33.3333 26.5518 33.0697 25.6657 32.6117 24.9105C34.9212 24.4687 36.6667 22.438 36.6667 19.9997C36.6667 17.5613 34.9212 15.5306 32.6117 15.0888M28.3333 32.4997C28.3333 34.8008 26.4678 36.6663 24.1667 36.6663C21.8655 36.6663 20 34.8008 20 32.4997V7.49967C20 5.19849 21.8655 3.33301 24.1667 3.33301C26.4678 3.33301 28.3333 5.19849 28.3333 7.49967C31.0948 7.49967 33.3333 9.73826 33.3333 12.4997C33.3333 13.4474 33.0697 14.3336 32.6117 15.0888M28.3333 32.4997C28.3333 31.1365 27.6787 29.9262 26.6667 29.166M32.6117 15.0888C32.0175 16.0684 31.0965 16.8275 30 17.2152" stroke="black" stroke-width="2.5" stroke-linecap="round" stroke-linejoin="round"/>
</svg>
