<svg width="40" height="40" viewBox="0 0 40 40" fill="none" xmlns="http://www.w3.org/2000/svg">
<path d="M29.1319 13.3331C29.1443 13.333 29.1568 13.333 29.1693 13.333C33.3114 13.333 36.6693 16.6908 36.6693 20.833C36.6693 24.0985 34.5823 26.8767 31.6693 27.9062M29.1319 13.3331C29.1566 13.0586 29.1693 12.7806 29.1693 12.4997C29.1693 7.43706 25.0653 3.33301 20.0026 3.33301C15.208 3.33301 11.2732 7.01404 10.87 11.7042M29.1319 13.3331C28.9614 15.2238 28.2169 16.949 27.0739 18.333M10.87 11.7042C6.64257 12.1065 3.33594 15.6669 3.33594 19.9997C3.33594 23.4168 5.39277 26.3537 8.33594 27.6397M10.87 11.7042C11.133 11.6791 11.3997 11.6663 11.6693 11.6663C13.5456 11.6663 15.2772 12.2865 16.6701 13.333" stroke="black" stroke-width="2.5" stroke-linecap="round" stroke-linejoin="round"/>
<path d="M30.4141 35.4163L26.6641 31.6663V28.333M30.4141 34.1663C29.7237 34.1663 29.1641 34.726 29.1641 35.4163C29.1641 36.1067 29.7237 36.6663 30.4141 36.6663C31.1044 36.6663 31.6641 36.1067 31.6641 35.4163C31.6641 34.726 31.1044 34.1663 30.4141 34.1663Z" stroke="black" stroke-width="2.5" stroke-linecap="round" stroke-linejoin="round"/>
<path d="M9.58594 35.4163L13.3359 31.6663V28.333M9.58594 34.1663C10.2763 34.1663 10.8359 34.726 10.8359 35.4163C10.8359 36.1067 10.2763 36.6663 9.58594 36.6663C8.89559 36.6663 8.33594 36.1067 8.33594 35.4163C8.33594 34.726 8.89559 34.1663 9.58594 34.1663Z" stroke="black" stroke-width="2.5" stroke-linecap="round" stroke-linejoin="round"/>
<path d="M20 35.4163V28.333M20 34.1663C19.3097 34.1663 18.75 34.726 18.75 35.4163C18.75 36.1067 19.3097 36.6663 20 36.6663C20.6903 36.6663 21.25 36.1067 21.25 35.4163C21.25 34.726 20.6903 34.1663 20 34.1663Z" stroke="black" stroke-width="2.5" stroke-linecap="round" stroke-linejoin="round"/>
</svg>
