<svg width="40" height="40" viewBox="0 0 40 40" fill="none" xmlns="http://www.w3.org/2000/svg">
<path d="M16.6926 3.33301C10.3962 3.33301 7.24802 3.33301 5.29197 5.28562C3.33594 7.23826 3.33594 10.3809 3.33594 16.6663C3.33594 22.9517 3.33594 26.0945 5.29197 28.047C7.24802 29.9997 10.3962 29.9997 16.6926 29.9997H23.3709C29.6674 29.9997 32.8156 29.9997 34.7716 28.047C36.1209 26.7002 36.5394 24.7868 36.6693 21.6663" stroke="black" stroke-width="2.5" stroke-linecap="round"/>
<path d="M20 30V36.6667" stroke="black" stroke-width="2.5"/>
<path d="M13.3359 36.667H26.6693" stroke="black" stroke-width="2.5" stroke-linecap="round"/>
<path d="M18.3359 25H21.6693" stroke="black" stroke-width="2.5" stroke-linecap="round" stroke-linejoin="round"/>
<path d="M30.0026 6.66699H26.6693C25.0979 6.66699 24.3123 6.66699 23.8241 7.15514C23.3359 7.64331 23.3359 8.42898 23.3359 10.0003V13.3337C23.3359 14.905 23.3359 15.6907 23.8241 16.1788C24.3123 16.667 25.0979 16.667 26.6693 16.667H30.0026C31.5739 16.667 32.3596 16.667 32.8478 16.1788C33.3359 15.6907 33.3359 14.905 33.3359 13.3337V10.0003C33.3359 8.42898 33.3359 7.64331 32.8478 7.15514C32.3596 6.66699 31.5739 6.66699 30.0026 6.66699Z" stroke="black" stroke-width="2.5" stroke-linecap="round" stroke-linejoin="round"/>
<path d="M25.8333 16.6663V19.9997M30.8333 16.6663V19.9997M25.8333 3.33301V6.66634M30.8333 3.33301V6.66634M23.3333 9.16634H20M23.3333 14.1663H20M36.6667 9.16634H33.3333M36.6667 14.1663H33.3333" stroke="black" stroke-width="2.5" stroke-linecap="round" stroke-linejoin="round"/>
</svg>
