<svg width="32" height="32" viewBox="0 0 32 32" fill="none" xmlns="http://www.w3.org/2000/svg">
<path d="M21.0748 4H10.9253C9.08856 4 7.3271 4.72962 6.02836 6.02836C4.72963 7.3271 4 9.08856 4 10.9253V21.0747C4 22.9114 4.72963 24.6729 6.02836 25.9716C7.3271 27.2704 9.08856 28 10.9253 28H21.0748C22.9114 28 24.6729 27.2704 25.9717 25.9716C27.2704 24.6729 28 22.9114 28 21.0747V10.9306C28 9.09389 27.2704 7.33242 25.9717 6.03369C24.6729 4.73495 22.9114 4.00533 21.0748 4.00533V4ZM25.7946 21.2639C25.7928 22.4835 25.3069 23.6526 24.4436 24.5141C23.5803 25.3757 22.4103 25.8592 21.1906 25.8585H10.8027C9.58285 25.8581 8.41304 25.3734 7.55045 24.5108C6.68787 23.6482 6.20312 22.4784 6.20277 21.2585V10.8707C6.20277 9.65066 6.6874 8.48064 7.55006 7.61798C8.41273 6.75532 9.58274 6.27068 10.8027 6.27068H21.1906C21.7948 6.27051 22.3931 6.38936 22.9514 6.62045C23.5096 6.85155 24.0169 7.19035 24.4441 7.61751C24.8714 8.04468 25.2104 8.55183 25.4416 9.11001C25.6729 9.66819 25.7919 10.2665 25.7919 10.8707L25.7946 21.2639Z" fill="#121212"/>
<path d="M15.9943 9.83398C14.7622 9.83425 13.5578 10.1998 12.5335 10.8846C11.5091 11.5693 10.7108 12.5424 10.2395 13.6808C9.76815 14.8192 9.64496 16.0719 9.8855 17.2803C10.126 18.4887 10.7195 19.5987 11.5908 20.4698C12.4622 21.341 13.5723 21.9342 14.7807 22.1745C15.9892 22.4148 17.2418 22.2913 18.3801 21.8197C19.5184 21.3482 20.4914 20.5496 21.1759 19.5251C21.8604 18.5006 22.2257 17.2962 22.2257 16.064C22.2257 15.2458 22.0646 14.4355 21.7514 13.6796C21.4382 12.9236 20.9792 12.2368 20.4005 11.6582C19.8219 11.0797 19.1349 10.6208 18.3789 10.3078C17.6229 9.99482 16.8126 9.83381 15.9943 9.83398ZM15.9943 20.102C15.1958 20.1017 14.4152 19.8647 13.7513 19.4208C13.0875 18.977 12.5701 18.3462 12.2647 17.6084C11.9593 16.8705 11.8795 16.0587 12.0355 15.2755C12.1914 14.4923 12.5761 13.7729 13.1409 13.2083C13.7057 12.6437 14.4251 12.2593 15.2084 12.1036C15.9916 11.9479 16.8035 12.0279 17.5412 12.3336C18.279 12.6392 18.9096 13.1568 19.3532 13.8208C19.7968 14.4848 20.0336 15.2655 20.0336 16.064C20.0336 16.5944 19.9291 17.1196 19.7261 17.6096C19.5231 18.0996 19.2256 18.5448 18.8505 18.9198C18.4754 19.2948 18.0301 19.5922 17.54 19.795C17.0499 19.9979 16.5247 20.1022 15.9943 20.102Z" fill="#121212"/>
<path d="M22.4374 8.14551C22.1502 8.14525 21.8694 8.23016 21.6305 8.38951C21.3916 8.54886 21.2053 8.77548 21.0953 9.04071C20.9852 9.30594 20.9563 9.59786 21.0121 9.87954C21.068 10.1612 21.2061 10.4199 21.4091 10.6231C21.6121 10.8262 21.8707 10.9646 22.1523 11.0208C22.434 11.0769 22.7259 11.0482 22.9912 10.9384C23.2566 10.8285 23.4834 10.6425 23.6429 10.4037C23.8025 10.165 23.8877 9.88432 23.8877 9.59715C23.8877 9.21238 23.7349 8.84336 23.463 8.57116C23.191 8.29896 22.8221 8.14587 22.4374 8.14551Z" fill="#121212"/>
</svg>
